<svg width="1200" height="280" viewBox="0 0 1200 280" fill="none" xmlns="http://www.w3.org/2000/svg" role="img" aria-labelledby="title desc">
  <title id="title">Ali Gouarab profile header</title>
  <desc id="desc">Dark profile header for Ali Gouarab, computer science student looking for an internship.</desc>
  <defs>
    <linearGradient id="bg" x1="0" y1="0" x2="1200" y2="280" gradientUnits="userSpaceOnUse">
      <stop offset="0" stop-color="#030712"/>
      <stop offset="0.5" stop-color="#111827"/>
      <stop offset="1" stop-color="#0b1020"/>
    </linearGradient>
    <linearGradient id="line" x1="110" y1="225" x2="1090" y2="80" gradientUnits="userSpaceOnUse">
      <stop offset="0" stop-color="#64748b"/>
      <stop offset="0.35" stop-color="#8b5cf6"/>
      <stop offset="0.7" stop-color="#22d3ee"/>
      <stop offset="1" stop-color="#10b981"/>
    </linearGradient>
    <radialGradient id="glow" cx="0" cy="0" r="1" gradientUnits="userSpaceOnUse" gradientTransform="translate(845 78) rotate(145) scale(330 180)">
      <stop stop-color="#8b5cf6" stop-opacity="0.3"/>
      <stop offset="1" stop-color="#8b5cf6" stop-opacity="0"/>
    </radialGradient>
    <pattern id="grid" width="42" height="42" patternUnits="userSpaceOnUse">
      <path d="M42 0H0V42" stroke="#e5e7eb" stroke-opacity="0.055" stroke-width="1"/>
    </pattern>
  </defs>

  <rect width="1200" height="280" rx="24" fill="url(#bg)"/>
  <rect width="1200" height="280" rx="24" fill="url(#grid)"/>
  <rect width="1200" height="280" rx="24" fill="url(#glow)"/>

  <path d="M82 217C167 189 212 203 292 154C377 102 434 151 514 119C616 78 691 184 799 132C882 92 964 91 1098 55" stroke="url(#line)" stroke-width="3" stroke-linecap="round" opacity="0.9"/>
  <path d="M82 231C186 213 258 238 348 188C450 132 515 173 602 166C728 154 797 205 916 159C1005 125 1044 133 1118 111" stroke="#94a3b8" stroke-width="1.4" stroke-linecap="round" stroke-dasharray="7 12" opacity="0.35"/>

  <g fill="#020617" stroke="#334155" stroke-width="1">
    <rect x="68" y="48" width="132" height="34" rx="17"/>
    <rect x="1000" y="190" width="132" height="34" rx="17"/>
    <rect x="904" y="42" width="164" height="34" rx="17"/>
  </g>
  <g font-family="'JetBrains Mono', 'Cascadia Code', Consolas, monospace" font-size="13" font-weight="600">
    <text x="94" y="70" fill="#cbd5e1">AI / DATA</text>
    <text x="1023" y="212" fill="#cbd5e1">FINANCE</text>
    <text x="928" y="64" fill="#cbd5e1">COMPUTER VISION</text>
  </g>

  <g fill="#e5e7eb" opacity="0.75" font-family="'JetBrains Mono', 'Cascadia Code', Consolas, monospace" font-size="15">
    <text x="78" y="131">P(model | data)</text>
    <text x="78" y="155" fill="#94a3b8">risk, signal, vision</text>
    <text x="946" y="126">x[t] -> features</text>
    <text x="946" y="150" fill="#94a3b8">math-driven code</text>
  </g>

  <g>
    <circle cx="292" cy="154" r="5" fill="#8b5cf6"/>
    <circle cx="514" cy="119" r="5" fill="#22d3ee"/>
    <circle cx="799" cy="132" r="5" fill="#10b981"/>
    <circle cx="1098" cy="55" r="5" fill="#e5e7eb"/>
  </g>

  <text x="600" y="126" text-anchor="middle" fill="#f8fafc" font-family="Inter, Segoe UI, Arial, sans-serif" font-size="58" font-weight="800">Ali Gouarab</text>
  <text x="600" y="165" text-anchor="middle" fill="#cbd5e1" font-family="'JetBrains Mono', 'Cascadia Code', Consolas, monospace" font-size="18">Computer Science Student | Looking for an Internship</text>
  <text x="600" y="202" text-anchor="middle" fill="#94a3b8" font-family="Inter, Segoe UI, Arial, sans-serif" font-size="16">AI / Data / Finance / Mathematics / Computer Vision</text>
</svg>
